<?xml version="1.0" encoding="UTF-8"?>
<svg xmlns="http://www.w3.org/2000/svg" xmlns:xlink="http://www.w3.org/1999/xlink" viewBox="0 0 40 40" width="40px" height="40px">
<g id="surface61445682">
<path style=" stroke:none;fill-rule:nonzero;fill:rgb(27.843139%,82.352942%,96.470588%);fill-opacity:1;" d="M 20 28.921875 C 8.597656 28.921875 0 25.085938 0 20 C 0 14.914062 8.597656 11.078125 20 11.078125 C 31.402344 11.078125 40 14.914062 40 20 C 40 25.085938 31.402344 28.921875 20 28.921875 Z M 20 13.578125 C 9.6875 13.578125 2.5 16.960938 2.5 20 C 2.5 23.039062 9.6875 26.421875 20 26.421875 C 30.3125 26.421875 37.5 23.039062 37.5 20 C 37.5 16.960938 30.3125 13.578125 20 13.578125 Z M 20 13.578125 "/>
<path style=" stroke:none;fill-rule:nonzero;fill:rgb(27.843139%,82.352942%,96.470588%);fill-opacity:1;" d="M 12.566406 37.5 C 11.691406 37.5 10.898438 37.296875 10.199219 36.894531 C 9.0625 36.238281 8.242188 35.078125 7.828125 33.539062 C 6.71875 29.378906 8.515625 22.351562 12.414062 15.636719 C 16.980469 7.777344 23.015625 2.5 27.433594 2.5 C 28.308594 2.5 29.105469 2.703125 29.800781 3.105469 C 30.9375 3.757812 31.757812 4.917969 32.171875 6.457031 C 33.28125 10.617188 31.484375 17.644531 27.585938 24.363281 C 23.023438 32.21875 16.988281 37.5 12.566406 37.5 Z M 27.433594 5 C 24.550781 5 19.0625 9.167969 14.574219 16.890625 C 11.050781 22.96875 9.308594 29.398438 10.246094 32.890625 C 10.488281 33.789062 10.890625 34.40625 11.445312 34.726562 C 13.871094 36.121094 20.261719 32.003906 25.421875 23.105469 C 28.949219 17.027344 30.691406 10.597656 29.753906 7.101562 C 29.511719 6.207031 29.109375 5.589844 28.558594 5.273438 C 28.238281 5.089844 27.871094 5 27.433594 5 Z M 27.433594 5 "/>
<path style=" stroke:none;fill-rule:nonzero;fill:rgb(27.843139%,82.352942%,96.470588%);fill-opacity:1;" d="M 27.433594 37.5 C 23.011719 37.5 16.976562 32.21875 12.414062 24.363281 C 8.515625 17.648438 6.71875 10.621094 7.828125 6.460938 C 8.242188 4.921875 9.0625 3.757812 10.199219 3.105469 C 10.898438 2.703125 11.695312 2.5 12.566406 2.5 C 16.988281 2.5 23.023438 7.78125 27.585938 15.640625 C 31.484375 22.359375 33.28125 29.382812 32.167969 33.542969 C 31.753906 35.085938 30.9375 36.246094 29.800781 36.894531 C 29.105469 37.296875 28.308594 37.5 27.433594 37.5 Z M 12.566406 5 C 12.132812 5 11.765625 5.089844 11.445312 5.273438 C 10.886719 5.59375 10.484375 6.210938 10.246094 7.109375 C 9.308594 10.605469 11.050781 17.035156 14.578125 23.109375 C 19.058594 30.832031 24.546875 35 27.433594 35 C 27.871094 35 28.238281 34.910156 28.558594 34.726562 C 29.113281 34.410156 29.515625 33.792969 29.753906 32.894531 C 30.691406 29.398438 28.953125 22.96875 25.425781 16.894531 C 20.941406 9.167969 15.453125 5 12.566406 5 Z M 12.566406 5 "/>
<path style=" stroke:none;fill-rule:nonzero;fill:rgb(27.843139%,82.352942%,96.470588%);fill-opacity:1;" d="M 22.5 20 C 22.5 21.382812 21.382812 22.5 20 22.5 C 18.617188 22.5 17.5 21.382812 17.5 20 C 17.5 18.617188 18.617188 17.5 20 17.5 C 21.382812 17.5 22.5 18.617188 22.5 20 Z M 22.5 20 "/>
<path style=" stroke:none;fill-rule:nonzero;fill:rgb(27.843139%,82.352942%,96.470588%);fill-opacity:1;" d="M 20 23.75 C 17.933594 23.75 16.25 22.066406 16.25 20 C 16.25 17.933594 17.933594 16.25 20 16.25 C 22.066406 16.25 23.75 17.933594 23.75 20 C 23.75 22.066406 22.066406 23.75 20 23.75 Z M 20 18.75 C 19.3125 18.75 18.75 19.308594 18.75 20 C 18.75 20.691406 19.3125 21.25 20 21.25 C 20.6875 21.25 21.25 20.691406 21.25 20 C 21.25 19.308594 20.6875 18.75 20 18.75 Z M 20 18.75 "/>
</g>
</svg>
